<?xml version="1.0" encoding="UTF-8" standalone="no"?>
<!-- Created with Inkscape (http://www.inkscape.org/) -->

<svg
   xmlns:dc="http://purl.org/dc/elements/1.1/"
   xmlns:cc="http://creativecommons.org/ns#"
   xmlns:rdf="http://www.w3.org/1999/02/22-rdf-syntax-ns#"
   xmlns:svg="http://www.w3.org/2000/svg"
   xmlns="http://www.w3.org/2000/svg"
   xmlns:sodipodi="http://sodipodi.sourceforge.net/DTD/sodipodi-0.dtd"
   xmlns:inkscape="http://www.inkscape.org/namespaces/inkscape"
   width="210mm"
   height="297mm"
   viewBox="0 0 744.09448819 1052.3622047"
   id="svg2"
   version="1.1"
   inkscape:version="0.91 r13725"
   sodipodi:docname="svd.svg">
  <sodipodi:namedview
     id="base"
     pagecolor="#ffffff"
     bordercolor="#666666"
     borderopacity="1.0"
     inkscape:pageopacity="0.0"
     inkscape:pageshadow="2"
     inkscape:zoom="0.7"
     inkscape:cx="-562.42852"
     inkscape:cy="514.28571"
     inkscape:document-units="px"
     inkscape:current-layer="layer1"
     showgrid="true"
     inkscape:window-width="1920"
     inkscape:window-height="1027"
     inkscape:window-x="0"
     inkscape:window-y="0"
     inkscape:window-maximized="1">
    <inkscape:grid
       type="xygrid"
       id="grid4136" />
  </sodipodi:namedview>
  <defs
     id="defs4">
    <marker
       inkscape:isstock="true"
       style="overflow:visible;"
       id="marker4602"
       refX="0.0"
       refY="0.0"
       orient="auto"
       inkscape:stockid="Arrow1Mend">
      <path
         transform="scale(0.4) rotate(180) translate(10,0)"
         style="fill-rule:evenodd;stroke:#000000;stroke-width:1pt;stroke-opacity:1;fill:#000000;fill-opacity:1"
         d="M 0.0,0.0 L 5.0,-5.0 L -12.5,0.0 L 5.0,5.0 L 0.0,0.0 z "
         id="path4604" />
    </marker>
    <marker
       inkscape:isstock="true"
       style="overflow:visible"
       id="marker4556"
       refX="0.0"
       refY="0.0"
       orient="auto"
       inkscape:stockid="Arrow1Mstart">
      <path
         transform="scale(0.4) translate(10,0)"
         style="fill-rule:evenodd;stroke:#000000;stroke-width:1pt;stroke-opacity:1;fill:#000000;fill-opacity:1"
         d="M 0.0,0.0 L 5.0,-5.0 L -12.5,0.0 L 5.0,5.0 L 0.0,0.0 z "
         id="path4558" />
    </marker>
    <marker
       inkscape:stockid="Arrow1Mend"
       orient="auto"
       refY="0.0"
       refX="0.0"
       id="Arrow1Mend"
       style="overflow:visible;"
       inkscape:isstock="true"
       inkscape:collect="always">
      <path
         id="path4249"
         d="M 0.0,0.0 L 5.0,-5.0 L -12.5,0.0 L 5.0,5.0 L 0.0,0.0 z "
         style="fill-rule:evenodd;stroke:#000000;stroke-width:1pt;stroke-opacity:1;fill:#000000;fill-opacity:1"
         transform="scale(0.4) rotate(180) translate(10,0)" />
    </marker>
    <marker
       inkscape:stockid="Arrow1Mstart"
       orient="auto"
       refY="0.0"
       refX="0.0"
       id="Arrow1Mstart"
       style="overflow:visible"
       inkscape:isstock="true"
       inkscape:collect="always">
      <path
         id="path4246"
         d="M 0.0,0.0 L 5.0,-5.0 L -12.5,0.0 L 5.0,5.0 L 0.0,0.0 z "
         style="fill-rule:evenodd;stroke:#000000;stroke-width:1pt;stroke-opacity:1;fill:#000000;fill-opacity:1"
         transform="scale(0.4) translate(10,0)" />
    </marker>
  </defs>
  <metadata
     id="metadata7">
    <rdf:RDF>
      <cc:Work
         rdf:about="">
        <dc:format>image/svg+xml</dc:format>
        <dc:type
           rdf:resource="http://purl.org/dc/dcmitype/StillImage" />
        <dc:title></dc:title>
      </cc:Work>
    </rdf:RDF>
  </metadata>
  <g
     inkscape:label="Layer 1"
     inkscape:groupmode="layer"
     id="layer1">
    <rect
       style="fill:#000000;fill-opacity:0.29411765;fill-rule:nonzero;stroke:#000000;stroke-width:2;stroke-miterlimit:4;stroke-dasharray:none;stroke-opacity:1"
       id="rect4138"
       width="148.49544"
       height="475.26596"
       x="-806.77582"
       y="353.58643"
       ry="0" />
    <rect
       style="fill:#000000;fill-opacity:0.29411765;fill-rule:nonzero;stroke:#000000;stroke-width:2;stroke-miterlimit:4;stroke-dasharray:none;stroke-opacity:1"
       id="rect4138-3"
       width="46.2131"
       height="475.68231"
       x="-560.98407"
       y="353.3783"
       ry="0" />
    <rect
       style="fill:none;fill-opacity:0.29411765;fill-rule:nonzero;stroke:#000000;stroke-width:2;stroke-miterlimit:4;stroke-dasharray:none;stroke-opacity:1"
       id="rect4138-6"
       width="101.85401"
       height="475.42715"
       x="-514.34344"
       y="353.21991"
       ry="0" />
    <rect
       style="fill:#000000;fill-opacity:0.29411765;fill-rule:nonzero;stroke:#000000;stroke-width:2;stroke-miterlimit:4;stroke-dasharray:none;stroke-opacity:1"
       id="rect4138-7"
       width="55.285282"
       height="55.495613"
       x="-398.06421"
       y="351.59909"
       ry="0" />
    <rect
       style="fill:none;fill-opacity:0.29411765;fill-rule:nonzero;stroke:#000000;stroke-width:2;stroke-miterlimit:4;stroke-dasharray:none;stroke-opacity:1"
       id="rect4138-7-5"
       width="148.86754"
       height="149.43388"
       x="-397.9389"
       y="351.7244"
       ry="0" />
    <rect
       style="fill:#000000;fill-opacity:0.29411765;fill-rule:nonzero;stroke:#000000;stroke-width:2;stroke-miterlimit:4;stroke-dasharray:none;stroke-opacity:1"
       id="rect4138-3-3"
       width="46.48634"
       height="148.82845"
       x="352.45395"
       y="86.267654"
       ry="0"
       transform="matrix(0,1,-1,0,0,0)" />
    <rect
       style="fill:none;fill-opacity:0.29411765;fill-rule:nonzero;stroke:#000000;stroke-width:2;stroke-miterlimit:4;stroke-dasharray:none;stroke-opacity:1"
       id="rect4138-6-5"
       width="102.45623"
       height="148.74861"
       x="399.37036"
       y="86.218102"
       ry="0"
       transform="matrix(0,1,-1,0,0,0)" />
    <path
       style="fill:none;fill-rule:evenodd;stroke:#000000;stroke-width:2;stroke-linecap:butt;stroke-linejoin:miter;stroke-opacity:1;stroke-miterlimit:4;stroke-dasharray:none;marker-start:url(#Arrow1Mstart);marker-end:url(#Arrow1Mend)"
       d="m -840,352.3622 0,460"
       id="path4234"
       inkscape:connector-curvature="0" />
    <path
       style="fill:none;fill-rule:evenodd;stroke:#000000;stroke-width:2;stroke-linecap:butt;stroke-linejoin:miter;stroke-opacity:1;stroke-miterlimit:4;stroke-dasharray:none;marker-start:url(#marker4556);marker-end:url(#marker4602)"
       d="m -808.57143,312.3622 148.57143,0"
       id="path4548"
       inkscape:connector-curvature="0" />
    <g
       transform="matrix(0.82352538,0,0,0.82352538,-1034.6654,-3.915267)"
       id="g4671">
      <g
         style="font-style:normal;font-variant:normal;font-weight:normal;font-stretch:normal;letter-spacing:normal;word-spacing:normal;text-anchor:start;fill:none;fill-opacity:1;fill-rule:evenodd;stroke:#000000;stroke-linecap:butt;stroke-linejoin:miter;stroke-miterlimit:10.43299961;stroke-dasharray:none;stroke-dashoffset:0;stroke-opacity:1"
         id="content"
         transform="matrix(1.0629921,0,0,-1.0629921,-186.02362,789.27165)"
         xml:space="preserve"
         stroke-miterlimit="10.433"
         font-style="normal"
         font-variant="normal"
         font-weight="normal"
         font-stretch="normal"
         font-size-adjust="none"
         letter-spacing="normal"
         word-spacing="normal"><path
           style="fill:#000000;stroke-width:0"
           inkscape:connector-curvature="0"
           d="m 489.18,439.72 -30.44,0 -0.95,-11.2 1.25,0 c 0.69,8.02 1.44,9.66 8.96,9.66 0.9,0 2.2,0 2.7,-0.1 1.04,-0.2 1.04,-0.75 1.04,-1.89 l 0,-26.26 c 0,-1.69 0,-2.39 -5.23,-2.39 l -1.99,0 0,-1.54 18.88,0 0,1.54 -1.99,0 c -5.23,0 -5.23,0.7 -5.23,2.39 l 0,26.26 c 0,0.99 0,1.69 0.89,1.89 0.55,0.1 1.89,0.1 2.84,0.1 7.52,0 8.27,-1.64 8.97,-9.66 l 1.24,0 z"
           id="path4674" /><path
           style="fill:#000000;stroke-width:0"
           inkscape:connector-curvature="0"
           d="m 500.82,428.02 -6.98,-0.55 0,-1.54 c 3.24,0 3.69,-0.31 3.69,-2.75 l 0,-13.39 c 0,-2.25 -0.55,-2.25 -3.89,-2.25 l 0,-1.54 10.66,0 0,1.54 c -3.28,0 -3.48,0.25 -3.48,2.19 z"
           id="path4676" /><path
           style="fill:#000000;stroke-width:0"
           inkscape:connector-curvature="0"
           d="m 501.02,436.68 -0.01,0.15 -0.01,0.15 -0.02,0.14 -0.02,0.13 -0.03,0.14 -0.04,0.13 -0.04,0.13 -0.05,0.12 -0.06,0.12 -0.06,0.11 -0.06,0.11 -0.07,0.11 -0.08,0.1 -0.08,0.1 -0.08,0.09 -0.09,0.09 -0.09,0.09 -0.1,0.07 -0.1,0.08 -0.11,0.07 -0.1,0.06 -0.11,0.06 -0.12,0.06 -0.11,0.05 -0.12,0.04 -0.12,0.04 -0.13,0.03 -0.12,0.03 -0.13,0.02 -0.13,0.01 -0.12,0.01 -0.13,0 c -1.55,0 -2.65,-1.34 -2.65,-2.64 0,-1.34 1.1,-2.64 2.65,-2.64 1.39,0 2.64,1.05 2.64,2.64 z"
           id="path4678" /><path
           style="fill:#000000;stroke-width:0"
           inkscape:connector-curvature="0"
           d="m 510.48,423.14 0,-13.35 c 0,-2.25 -0.55,-2.25 -3.89,-2.25 l 0,-1.54 11.21,0 0,1.54 c -3.33,0 -3.88,0 -3.88,2.25 l 0,9.16 c 0,5.18 3.53,7.97 6.72,7.97 3.14,0 3.69,-2.69 3.69,-5.53 l 0,-11.6 c 0,-2.25 -0.55,-2.25 -3.89,-2.25 l 0,-1.54 11.21,0 0,1.54 c -3.34,0 -3.88,0 -3.88,2.25 l 0,9.16 c 0,5.18 3.53,7.97 6.72,7.97 3.14,0 3.69,-2.69 3.69,-5.53 l 0,-11.6 c 0,-2.25 -0.55,-2.25 -3.89,-2.25 l 0,-1.54 11.21,0 0,1.54 c -2.59,0 -3.84,0 -3.89,1.5 l 0,9.51 c 0,4.29 0,5.83 -1.54,7.63 -0.7,0.84 -2.34,1.84 -5.23,1.84 -4.19,0 -6.38,-2.99 -7.23,-4.88 -0.69,4.33 -4.38,4.88 -6.62,4.88 -3.64,0 -5.98,-2.14 -7.37,-5.23 l 0,5.23 -7.03,-0.55 0,-1.54 c 3.49,0 3.89,-0.35 3.89,-2.79 z"
           id="path4680" /><path
           style="fill:#000000;stroke-width:0"
           inkscape:connector-curvature="0"
           d="m 552.53,417.51 0.05,1.04 c 0.3,7.43 4.48,8.67 6.18,8.67 5.13,0 5.63,-6.72 5.63,-8.67 l -11.81,0 -0.05,-1.04 13.9,0 c 1.09,0 1.24,0 1.24,1.04 0,4.93 -2.69,9.77 -8.91,9.77 -5.78,0 -10.36,-5.14 -10.36,-11.36 0,-6.67 5.22,-11.51 10.95,-11.51 6.08,0 8.32,5.53 8.32,6.48 0,0.5 -0.4,0.6 -0.65,0.6 -0.44,0 -0.54,-0.3 -0.64,-0.7 -1.75,-5.13 -6.23,-5.13 -6.73,-5.13 -2.49,0 -4.48,1.49 -5.63,3.34 -1.49,2.39 -1.49,5.67 -1.49,7.47 z"
           id="path4682" /></g>    </g>
    <g
       id="g4742"
       transform="matrix(0,-0.80043001,0.80043001,0,-1157.7046,881.91508)">
      <g
         word-spacing="normal"
         letter-spacing="normal"
         font-size-adjust="none"
         font-stretch="normal"
         font-weight="normal"
         font-variant="normal"
         font-style="normal"
         stroke-miterlimit="10.433"
         xml:space="preserve"
         transform="matrix(1.0629921,0,0,-1.0629921,-186.02362,789.27165)"
         id="g4744"
         style="font-style:normal;font-variant:normal;font-weight:normal;font-stretch:normal;letter-spacing:normal;word-spacing:normal;text-anchor:start;fill:none;fill-opacity:1;fill-rule:evenodd;stroke:#000000;stroke-linecap:butt;stroke-linejoin:miter;stroke-miterlimit:10.43299961;stroke-dasharray:none;stroke-dashoffset:0;stroke-opacity:1"><path
           id="path4746"
           d="m 473.39,425.33 -6.38,1.54 c -3.09,0.75 -5.03,3.44 -5.03,6.33 0,3.48 2.69,6.52 6.57,6.52 8.32,0 9.42,-8.17 9.72,-10.41 0.05,-0.3 0.05,-0.6 0.59,-0.6 0.65,0 0.65,0.25 0.65,1.2 l 0,10.01 c 0,0.85 0,1.2 -0.55,1.2 -0.35,0 -0.39,-0.05 -0.75,-0.65 l -1.74,-2.84 c -1.49,1.44 -3.53,3.49 -7.97,3.49 -5.53,0 -9.71,-4.39 -9.71,-9.67 0,-4.13 2.64,-7.77 6.53,-9.11 0.54,-0.2 3.08,-0.8 6.57,-1.64 1.34,-0.35 2.84,-0.7 4.23,-2.54 1.05,-1.3 1.55,-2.95 1.55,-4.59 0,-3.53 -2.49,-7.12 -6.68,-7.12 -1.44,0 -5.23,0.25 -7.87,2.69 -2.89,2.69 -3.03,5.88 -3.08,7.67 -0.06,0.5 -0.45,0.5 -0.6,0.5 -0.65,0 -0.65,-0.35 -0.65,-1.25 l 0,-9.96 c 0,-0.85 0,-1.2 0.55,-1.2 0.35,0 0.39,0.1 0.75,0.65 0,0.05 0.14,0.2 1.79,2.84 1.54,-1.69 4.73,-3.49 9.16,-3.49 5.83,0 9.82,4.89 9.82,10.37 0,4.98 -3.29,9.06 -7.47,10.06 z"
           inkscape:connector-curvature="0"
           style="fill:#000000;stroke-width:0" /><path
           id="path4748"
           d="m 491.57,424.73 0,3.29 -7.18,-0.55 0,-1.54 c 3.54,0 3.89,-0.31 3.89,-2.5 l 0,-23.31 c 0,-2.24 -0.55,-2.24 -3.89,-2.24 l 0,-1.54 11.21,0 0,1.54 c -3.33,0 -3.88,0 -3.88,2.24 l 0,8.37 0,0.45 0.69,0.65 c -0.69,1.04 -0.69,1.09 -0.69,2.09 l 0,0 0,11.11 c 1.44,2.54 3.88,3.98 6.42,3.98 3.64,0 6.68,-4.38 6.68,-10.01 0,-6.03 -3.49,-10.21 -7.18,-10.21 -1.99,0 -3.88,0.99 -5.23,3.04 l -0.69,-0.65 c 0.24,-0.8 2.34,-3.49 6.12,-3.49 5.93,0 11.11,4.88 11.11,11.31 0,6.33 -4.83,11.26 -10.41,11.26 -3.88,0 -5.98,-2.2 -6.97,-3.29 z"
           inkscape:connector-curvature="0"
           style="fill:#000000;stroke-width:0" /><path
           id="path4750"
           d="m 527.59,409.79 0.02,-0.19 0.03,-0.19 0.03,-0.19 0.04,-0.18 0.05,-0.19 0.06,-0.18 0.06,-0.18 0.07,-0.18 0.07,-0.18 0.08,-0.18 0.09,-0.17 0.1,-0.16 0.1,-0.17 0.1,-0.15 0.12,-0.16 0.12,-0.14 0.12,-0.15 0.13,-0.13 0.14,-0.13 0.15,-0.12 0.15,-0.12 0.15,-0.1 0.17,-0.1 0.17,-0.09 0.17,-0.08 0.18,-0.07 0.19,-0.07 0.19,-0.05 0.2,-0.04 0.21,-0.03 0.21,-0.01 0.21,-0.01 c 1.05,0 4.09,0.7 4.09,4.73 l 0,2.79 -1.25,0 0,-2.79 c 0,-2.89 -1.24,-3.18 -1.79,-3.18 -1.64,0 -1.84,2.24 -1.84,2.48 l 0,9.97 c 0,2.09 0,4.03 -1.8,5.88 -1.94,1.94 -4.43,2.74 -6.82,2.74 -4.09,0 -7.53,-2.34 -7.53,-5.63 0,-1.5 1,-2.34 2.3,-2.34 1.39,0 2.29,0.99 2.29,2.29 0,0.59 -0.25,2.24 -2.54,2.29 1.35,1.74 3.78,2.29 5.38,2.29 2.44,0 5.28,-1.94 5.28,-6.38 l 0,-1.84 0,-1.04 0,-4.99 c 0,-4.73 -3.59,-6.42 -5.83,-6.42 -2.44,0 -4.48,1.74 -4.48,4.23 0,2.74 2.09,6.88 10.31,7.18 l 0,0 0,1.04 c -2.54,-0.15 -6.03,-0.3 -9.17,-1.79 -3.73,-1.69 -4.98,-4.28 -4.98,-6.48 0,-4.03 4.84,-5.28 7.97,-5.28 3.29,0 5.58,2 6.53,4.34 z"
           inkscape:connector-curvature="0"
           style="fill:#000000;stroke-width:0" /><path
           id="path4752"
           d="m 541.83,416.86 0,0.38 0.01,0.36 0.01,0.36 0.02,0.35 0.03,0.34 0.03,0.34 0.04,0.32 0.04,0.32 0.05,0.31 0.05,0.3 0.05,0.29 0.06,0.29 0.14,0.54 0.15,0.52 0.16,0.49 0.19,0.46 0.19,0.43 0.21,0.4 0.22,0.37 0.23,0.35 0.24,0.33 0.25,0.3 0.26,0.28 0.26,0.25 0.27,0.23 0.28,0.21 0.27,0.19 0.28,0.17 0.29,0.15 0.28,0.13 0.28,0.11 0.28,0.09 0.28,0.08 0.28,0.06 0.27,0.05 0.26,0.03 0.26,0.02 0.25,0.01 c 0.45,0 3.59,-0.05 5.33,-1.84 -2.04,-0.15 -2.34,-1.64 -2.34,-2.29 0,-1.3 0.9,-2.3 2.29,-2.3 1.3,0 2.29,0.85 2.29,2.34 0,3.4 -3.78,5.34 -7.62,5.34 -6.22,0 -10.8,-5.38 -10.8,-11.56 0,-6.38 4.92,-11.31 10.7,-11.31 6.68,0 8.27,5.98 8.27,6.48 0,0.5 -0.49,0.5 -0.65,0.5 -0.44,0 -0.54,-0.2 -0.64,-0.5 -1.45,-4.63 -4.68,-5.23 -6.53,-5.23 -2.64,0 -7.02,2.14 -7.02,10.16 z"
           inkscape:connector-curvature="0"
           style="fill:#000000;stroke-width:0" /><path
           id="path4754"
           d="m 563.53,417.51 0.05,1.04 c 0.3,7.43 4.48,8.67 6.18,8.67 5.13,0 5.63,-6.72 5.63,-8.67 l -11.81,0 -0.05,-1.04 13.9,0 c 1.09,0 1.24,0 1.24,1.04 0,4.93 -2.69,9.77 -8.91,9.77 -5.78,0 -10.36,-5.14 -10.36,-11.36 0,-6.67 5.22,-11.51 10.95,-11.51 6.08,0 8.32,5.53 8.32,6.48 0,0.5 -0.4,0.6 -0.65,0.6 -0.44,0 -0.54,-0.3 -0.64,-0.7 -1.75,-5.13 -6.23,-5.13 -6.73,-5.13 -2.49,0 -4.48,1.49 -5.63,3.34 -1.49,2.39 -1.49,5.67 -1.49,7.47 z"
           inkscape:connector-curvature="0"
           style="fill:#000000;stroke-width:0" /></g>    </g>
    <g
       transform="translate(-931.42857,250)"
       id="g4828">
      <g
         style="font-style:normal;font-variant:normal;font-weight:normal;font-stretch:normal;letter-spacing:normal;word-spacing:normal;text-anchor:start;fill:none;fill-opacity:1;fill-rule:evenodd;stroke:#000000;stroke-linecap:butt;stroke-linejoin:miter;stroke-miterlimit:10.43299961;stroke-dasharray:none;stroke-dashoffset:0;stroke-opacity:1"
         id="g4830"
         transform="matrix(1.0629921,0,0,-1.0629921,-186.02362,789.27165)"
         xml:space="preserve"
         stroke-miterlimit="10.433"
         font-style="normal"
         font-variant="normal"
         font-weight="normal"
         font-stretch="normal"
         font-size-adjust="none"
         letter-spacing="normal"
         word-spacing="normal"><path
           style="fill:#000000;stroke-width:0"
           inkscape:connector-curvature="0"
           d="m 490.22,422.29 0.14,0 0.15,0 0.15,0.01 0.07,0 0.07,0 0.07,0.01 0.08,0.01 0.07,0.01 0.07,0.01 0.06,0.02 0.07,0.01 0.07,0.02 0.06,0.02 0.06,0.03 0.06,0.03 0.05,0.03 0.06,0.03 0.05,0.04 0.04,0.04 0.05,0.05 0.03,0.05 0.02,0.03 0.02,0.02 0.02,0.03 0.01,0.03 0.02,0.03 0.01,0.04 0.01,0.03 0.01,0.04 0.01,0.03 0.01,0.04 0.01,0.04 0,0.04 0.01,0.04 0,0.04 0,0.05 0,0.05 c 0,0.99 -0.94,0.99 -1.64,0.99 l -29.84,0 c -0.7,0 -1.64,0 -1.64,-0.99 0,-1 0.94,-1 1.69,-1 z"
           id="path4832" /><path
           style="fill:#000000;stroke-width:0"
           inkscape:connector-curvature="0"
           d="m 490.27,412.62 0.13,0.01 0.14,0 0.14,0 0.07,0.01 0.07,0 0.07,0.01 0.07,0.01 0.07,0.01 0.07,0.01 0.06,0.01 0.07,0.02 0.06,0.02 0.06,0.02 0.06,0.02 0.06,0.03 0.06,0.03 0.05,0.04 0.05,0.04 0.04,0.04 0.05,0.04 0.02,0.03 0.02,0.03 0.01,0.02 0.02,0.03 0.02,0.03 0.01,0.03 0.02,0.03 0.01,0.03 0.01,0.04 0.01,0.03 0.01,0.04 0.01,0.04 0.01,0.04 0,0.04 0.01,0.04 0,0.04 0,0.05 0,0.04 c 0,1 -0.94,1 -1.69,1 l -29.74,0 c -0.75,0 -1.69,0 -1.69,-1 0,-1 0.94,-1 1.64,-1 z"
           id="path4834" /></g>    </g>
    <g
       transform="matrix(0.79323638,0,0,0.79323638,-1038.5164,620.40934)"
       id="g5005">
      <g
         style="font-style:normal;font-variant:normal;font-weight:normal;font-stretch:normal;letter-spacing:normal;word-spacing:normal;text-anchor:start;fill:none;fill-opacity:1;fill-rule:evenodd;stroke:#000000;stroke-linecap:butt;stroke-linejoin:miter;stroke-miterlimit:10.43299961;stroke-dasharray:none;stroke-dashoffset:0;stroke-opacity:1"
         id="g5007"
         transform="matrix(1.0629921,0,0,-1.0629921,-186.02362,789.27165)"
         xml:space="preserve"
         stroke-miterlimit="10.433"
         font-style="normal"
         font-variant="normal"
         font-weight="normal"
         font-stretch="normal"
         font-size-adjust="none"
         letter-spacing="normal"
         word-spacing="normal"><path
           style="fill:#000000;stroke-width:0"
           inkscape:connector-curvature="0"
           d="m 478.12,403.16 0,-0.24 0,-0.26 0.01,-0.26 0.01,-0.26 0.02,-0.28 0.02,-0.27 0.03,-0.28 0.03,-0.29 0.04,-0.28 0.05,-0.29 0.06,-0.28 0.07,-0.28 0.08,-0.28 0.09,-0.28 0.11,-0.27 0.11,-0.26 0.13,-0.26 0.14,-0.25 0.16,-0.24 0.17,-0.22 0.19,-0.22 0.2,-0.2 0.22,-0.19 0.24,-0.17 0.13,-0.09 0.13,-0.07 0.14,-0.07 0.14,-0.07 0.14,-0.06 0.16,-0.06 0.15,-0.06 0.16,-0.04 0.17,-0.05 0.17,-0.04 0.18,-0.03 0.19,-0.03 0.19,-0.02 0.19,-0.01 0.2,-0.01 0.21,0 c 6.17,0 9.01,8.61 9.01,9.66 0,0.5 -0.39,0.9 -0.89,0.9 -0.6,0 -0.8,-0.5 -0.9,-0.75 -0.94,-2.49 -4.63,-2.49 -5.13,-2.49 -1.09,0 -2.39,0 -3.63,2.89 12.05,4.43 15.19,15.94 15.19,21.62 0,8.47 -5.88,12.85 -14.5,12.85 l -0.49,-1.99 c 4.28,0 8.36,-2.39 8.36,-8.97 0,-0.35 -0.65,-15.59 -9.56,-20.92 -1,2.44 -2.34,4.58 -5.38,4.58 -2.74,0 -5.73,-2.14 -5.73,-4.93 l 1.79,0 c 0,1.59 1.95,3.14 3.99,3.14 1.3,0 2.89,-0.35 2.99,-3.99 l 0,0 c -0.35,-0.15 -2.34,-0.8 -4.39,-0.8 -0.89,0 -2.59,0 -2.59,1.65 l -1.79,0 c 0,-0.4 0,-0.45 0.05,-0.65 l 0,0 c -3.09,1.5 -4.08,4.54 -4.08,7.87 0,2.84 1.39,11.91 5.68,17.49 3.18,4.08 7.42,5.53 10.66,5.53 l 0.49,1.99 c -15.39,0 -23.46,-13.2 -23.46,-23.16 0,-8.72 6.23,-12.71 14.54,-12.71 0.61,0 2.44,0 4.94,0.5 z"
           id="path5009" /><path
           style="fill:#000000;stroke-width:0"
           inkscape:connector-curvature="0"
           d="m 515.49,394.04 0,0.03 0,0.03 -0.01,0.01 0,0.02 0,0.01 -0.01,0.02 0,0.02 -0.01,0.01 -0.01,0.02 -0.01,0.02 -0.01,0.03 -0.01,0.02 -0.02,0.02 -0.02,0.03 -0.02,0.03 -0.02,0.03 -0.03,0.03 -0.03,0.04 -0.01,0.02 -0.02,0.02 -0.02,0.02 -0.02,0.02 -0.02,0.02 -0.02,0.03 -0.02,0.02 -0.02,0.02 -0.02,0.03 -0.03,0.02 -0.02,0.03 -0.03,0.03 -0.02,0.03 -0.03,0.03 -0.03,0.03 -0.03,0.03 -0.03,0.03 -0.03,0.03 -0.04,0.04 -0.03,0.03 -0.04,0.04 -0.03,0.03 -0.04,0.04 -0.04,0.04 c -6.23,6.28 -7.82,15.69 -7.82,23.31 0,8.67 1.89,17.34 8.02,23.57 0.65,0.59 0.65,0.69 0.65,0.84 0,0.35 -0.2,0.5 -0.5,0.5 -0.5,0 -4.98,-3.39 -7.92,-9.72 -2.54,-5.47 -3.14,-11 -3.14,-15.19 0,-3.88 0.55,-9.91 3.29,-15.54 2.99,-6.12 7.27,-9.36 7.77,-9.36 0.3,0 0.5,0.15 0.5,0.49 z"
           id="path5011" /><path
           style="fill:#000000;stroke-width:0"
           inkscape:connector-curvature="0"
           d="m 544.7,425.98 -0.17,-0.05 -0.16,-0.06 -0.15,-0.06 -0.15,-0.07 -0.15,-0.08 -0.13,-0.08 -0.14,-0.09 -0.13,-0.09 -0.12,-0.09 -0.12,-0.1 -0.11,-0.1 -0.11,-0.11 -0.1,-0.11 -0.1,-0.12 -0.09,-0.11 -0.09,-0.12 -0.08,-0.12 -0.07,-0.13 -0.08,-0.12 -0.06,-0.13 -0.06,-0.12 -0.06,-0.13 -0.05,-0.13 -0.04,-0.13 -0.04,-0.13 -0.03,-0.12 -0.03,-0.13 -0.03,-0.13 -0.01,-0.12 -0.02,-0.12 -0.01,-0.12 0,-0.12 c 0,-1.1 0.84,-2.29 2.49,-2.29 1.74,0 3.59,1.44 3.59,3.88 0,2.64 -2.64,4.39 -5.68,4.39 -2.84,0 -4.68,-2.14 -5.33,-3.04 -1.25,2.09 -4.04,3.04 -6.88,3.04 -6.27,0 -9.66,-6.13 -9.66,-7.77 0,-0.7 0.75,-0.7 1.19,-0.7 0.6,0 0.95,0 1.15,0.65 1.45,4.53 5.03,6.02 7.08,6.02 1.89,0 2.79,-0.9 2.79,-2.49 0,-0.94 -0.7,-3.68 -1.15,-5.48 l -1.69,-6.82 c -0.75,-3.04 -2.55,-4.54 -4.24,-4.54 -0.25,0 -1.39,0 -2.39,0.75 1.79,0.5 2.69,2.19 2.69,3.44 0,1.1 -0.85,2.29 -2.49,2.29 -1.75,0 -3.58,-1.44 -3.58,-3.89 0,-2.64 2.63,-4.38 5.67,-4.38 2.84,0 4.68,2.14 5.33,3.04 1.25,-2.09 4.04,-3.04 6.88,-3.04 6.27,0 9.66,6.13 9.66,7.77 0,0.7 -0.75,0.7 -1.2,0.7 -0.59,0 -0.94,0 -1.14,-0.65 -1.45,-4.53 -5.03,-6.03 -7.08,-6.03 -1.89,0 -2.79,0.9 -2.79,2.5 0,1.04 0.65,3.68 1.1,5.52 0.35,1.3 1.49,5.98 1.74,6.78 0.75,2.99 2.5,4.53 4.24,4.53 0.25,0 1.39,0 2.39,-0.74 z"
           id="path5013" /><path
           style="fill:#000000;stroke-width:0"
           inkscape:connector-curvature="0"
           d="m 561.11,406.05 0,0.31 -0.01,0.29 -0.02,0.29 -0.02,0.28 -0.04,0.27 -0.03,0.26 -0.05,0.26 -0.05,0.24 -0.06,0.24 -0.07,0.23 -0.07,0.22 -0.07,0.21 -0.09,0.2 -0.09,0.19 -0.09,0.18 -0.1,0.18 -0.11,0.16 -0.11,0.15 -0.12,0.15 -0.12,0.13 -0.13,0.13 -0.13,0.11 -0.14,0.1 -0.15,0.1 -0.15,0.08 -0.15,0.07 -0.16,0.06 -0.16,0.05 -0.17,0.04 -0.17,0.03 -0.17,0.02 -0.18,0 c -1.65,0 -2.65,-1.24 -2.65,-2.64 0,-1.34 1,-2.64 2.65,-2.64 0.59,0 1.24,0.2 1.74,0.65 0.15,0.1 0.2,0.15 0.25,0.15 0.05,0 0.1,-0.05 0.1,-0.75 0,-3.69 -1.75,-6.67 -3.39,-8.32 -0.55,-0.55 -0.55,-0.65 -0.55,-0.8 0,-0.34 0.25,-0.54 0.5,-0.54 0.55,0 4.53,3.83 4.53,9.66 z"
           id="path5015" /><path
           style="fill:#000000;stroke-width:0"
           inkscape:connector-curvature="0"
           d="m 583.26,425.93 4.69,0 c 0.99,0 1.49,0 1.49,0.99 0,0.55 -0.5,0.55 -1.4,0.55 l -4.38,0 c 1.79,7.07 2.04,8.07 2.04,8.37 0,0.84 -0.6,1.34 -1.44,1.34 -0.15,0 -1.54,-0.05 -1.99,-1.79 l -1.95,-7.92 -4.68,0 c -0.99,0 -1.49,0 -1.49,-0.95 0,-0.59 0.39,-0.59 1.39,-0.59 l 4.39,0 c -3.59,-14.15 -3.79,-15 -3.79,-15.89 0,-2.7 1.89,-4.59 4.58,-4.59 5.08,0 7.92,7.28 7.92,7.67 0,0.5 -0.4,0.5 -0.6,0.5 -0.45,0 -0.49,-0.15 -0.74,-0.69 -2.14,-5.19 -4.78,-6.38 -6.48,-6.38 -1.05,0 -1.54,0.65 -1.54,2.29 0,1.2 0.1,1.54 0.29,2.39 z"
           id="path5017" /><path
           style="fill:#000000;stroke-width:0"
           inkscape:connector-curvature="0"
           d="m 605.4,418.45 -0.01,0.37 0,0.39 -0.01,0.39 -0.01,0.41 -0.04,0.84 -0.06,0.88 -0.09,0.92 -0.1,0.94 -0.14,0.98 -0.16,1 -0.2,1.02 -0.23,1.04 -0.27,1.05 -0.3,1.06 -0.35,1.06 -0.39,1.07 -0.22,0.53 -0.22,0.54 -0.24,0.53 -0.25,0.53 c -2.99,6.12 -7.27,9.36 -7.77,9.36 -0.3,0 -0.5,-0.2 -0.5,-0.5 0,-0.15 0,-0.25 0.94,-1.15 4.89,-4.92 7.73,-12.85 7.73,-23.26 0,-8.52 -1.85,-17.28 -8.02,-23.56 -0.65,-0.6 -0.65,-0.69 -0.65,-0.85 0,-0.29 0.2,-0.49 0.5,-0.49 0.5,0 4.98,3.38 7.92,9.71 2.54,5.48 3.14,11.01 3.14,15.19 z"
           id="path5019" /></g>    </g>
    <g
       id="g5117"
       transform="matrix(0.79323638,0,0,0.79323638,-777.54943,620.98075)">
      <g
         word-spacing="normal"
         letter-spacing="normal"
         font-size-adjust="none"
         font-stretch="normal"
         font-weight="normal"
         font-variant="normal"
         font-style="normal"
         stroke-miterlimit="10.433"
         xml:space="preserve"
         transform="matrix(1.0629921,0,0,-1.0629921,-186.02362,789.27165)"
         id="g5119"
         style="font-style:normal;font-variant:normal;font-weight:normal;font-stretch:normal;letter-spacing:normal;word-spacing:normal;text-anchor:start;fill:none;fill-opacity:1;fill-rule:evenodd;stroke:#000000;stroke-linecap:butt;stroke-linejoin:miter;stroke-miterlimit:10.43299961;stroke-dasharray:none;stroke-dashoffset:0;stroke-opacity:1"><path
           id="path5121"
           d="m 493.61,436.29 0.02,0.08 0.02,0.08 0.02,0.08 0.02,0.07 0.02,0.07 0.02,0.06 0.02,0.06 0.02,0.06 0.02,0.05 0.02,0.05 0.03,0.04 0.02,0.04 0.03,0.04 0.02,0.04 0.03,0.03 0.04,0.04 0.03,0.03 0.04,0.03 0.04,0.02 0.05,0.03 0.05,0.02 0.05,0.03 0.06,0.02 0.06,0.03 0.07,0.02 0.07,0.02 0.08,0.03 0.04,0.01 0.04,0.01 0.04,0.01 0.05,0.01 0.05,0.02 0.04,0.01 0.05,0.01 0.06,0.01 0.05,0.02 0.05,0.01 c 0.85,0.15 2.09,0.25 2.89,0.25 0.95,0 1.75,0 1.75,1.44 0,0.55 -0.4,0.9 -1,0.9 l -11.21,0 c -0.35,0 -1.34,0 -1.34,-1.44 0,-0.9 0.84,-0.9 1.54,-0.9 0.45,0 2.29,0 3.49,-0.5 l -4.93,-19.62 c -1.8,-7.23 -7.67,-10.21 -13.65,-10.21 -4.68,0 -6.88,1.94 -6.88,5.52 0,1.25 0.2,2.5 0.5,3.74 l 5.23,20.87 c 1.1,0.2 2.84,0.2 3.39,0.2 1.74,0 2.39,0 2.39,1.44 0,0.65 -0.55,0.9 -1.1,0.9 -1.24,0 -2.53,-0.1 -3.78,-0.1 l -7.57,0 c -1.3,0 -2.64,0.1 -3.94,0.1 -0.5,0 -1.44,0 -1.44,-1.44 0,-0.9 0.65,-0.9 2.29,-0.9 1.2,0 2.79,0 2.79,-0.25 0,-0.1 -0.5,-1.94 -0.75,-2.89 l -1.1,-4.38 -3.03,-12.31 c -0.45,-1.79 -0.45,-2.19 -0.45,-3.13 0,-6.53 5.58,-9.72 13.1,-9.72 8.92,0 14.89,5.28 16.59,12.11 z"
           inkscape:connector-curvature="0"
           style="fill:#000000;stroke-width:0" /><path
           id="path5123"
           d="m 517.49,394.04 0,0.03 0,0.03 -0.01,0.01 0,0.02 0,0.01 -0.01,0.02 0,0.02 -0.01,0.01 -0.01,0.02 -0.01,0.02 -0.01,0.03 -0.01,0.02 -0.02,0.02 -0.02,0.03 -0.02,0.03 -0.02,0.03 -0.03,0.03 -0.03,0.04 -0.01,0.02 -0.02,0.02 -0.02,0.02 -0.02,0.02 -0.02,0.02 -0.02,0.03 -0.02,0.02 -0.02,0.02 -0.02,0.03 -0.03,0.02 -0.02,0.03 -0.03,0.03 -0.02,0.03 -0.03,0.03 -0.03,0.03 -0.03,0.03 -0.03,0.03 -0.03,0.03 -0.04,0.04 -0.03,0.03 -0.04,0.04 -0.03,0.03 -0.04,0.04 -0.04,0.04 c -6.23,6.28 -7.82,15.69 -7.82,23.31 0,8.67 1.89,17.34 8.02,23.57 0.65,0.59 0.65,0.69 0.65,0.84 0,0.35 -0.2,0.5 -0.5,0.5 -0.5,0 -4.98,-3.39 -7.92,-9.72 -2.54,-5.47 -3.14,-11 -3.14,-15.19 0,-3.88 0.55,-9.91 3.29,-15.54 2.99,-6.12 7.27,-9.36 7.77,-9.36 0.3,0 0.5,0.15 0.5,0.49 z"
           inkscape:connector-curvature="0"
           style="fill:#000000;stroke-width:0" /><path
           id="path5125"
           d="m 546.7,425.98 -0.17,-0.05 -0.16,-0.06 -0.15,-0.06 -0.15,-0.07 -0.15,-0.08 -0.13,-0.08 -0.14,-0.09 -0.13,-0.09 -0.12,-0.09 -0.12,-0.1 -0.11,-0.1 -0.11,-0.11 -0.1,-0.11 -0.1,-0.12 -0.09,-0.11 -0.09,-0.12 -0.08,-0.12 -0.07,-0.13 -0.08,-0.12 -0.06,-0.13 -0.06,-0.12 -0.06,-0.13 -0.05,-0.13 -0.04,-0.13 -0.04,-0.13 -0.03,-0.12 -0.03,-0.13 -0.03,-0.13 -0.01,-0.12 -0.02,-0.12 -0.01,-0.12 0,-0.12 c 0,-1.1 0.84,-2.29 2.49,-2.29 1.74,0 3.59,1.44 3.59,3.88 0,2.64 -2.64,4.39 -5.68,4.39 -2.84,0 -4.68,-2.14 -5.33,-3.04 -1.25,2.09 -4.04,3.04 -6.88,3.04 -6.27,0 -9.66,-6.13 -9.66,-7.77 0,-0.7 0.75,-0.7 1.19,-0.7 0.6,0 0.95,0 1.15,0.65 1.45,4.53 5.03,6.02 7.08,6.02 1.89,0 2.79,-0.9 2.79,-2.49 0,-0.94 -0.7,-3.68 -1.15,-5.48 l -1.69,-6.82 c -0.75,-3.04 -2.55,-4.54 -4.24,-4.54 -0.25,0 -1.39,0 -2.39,0.75 1.79,0.5 2.69,2.19 2.69,3.44 0,1.1 -0.85,2.29 -2.49,2.29 -1.75,0 -3.58,-1.44 -3.58,-3.89 0,-2.64 2.63,-4.38 5.67,-4.38 2.84,0 4.68,2.14 5.33,3.04 1.25,-2.09 4.04,-3.04 6.88,-3.04 6.27,0 9.66,6.13 9.66,7.77 0,0.7 -0.75,0.7 -1.2,0.7 -0.59,0 -0.94,0 -1.14,-0.65 -1.45,-4.53 -5.03,-6.03 -7.08,-6.03 -1.89,0 -2.79,0.9 -2.79,2.5 0,1.04 0.65,3.68 1.1,5.52 0.35,1.3 1.49,5.98 1.74,6.78 0.75,2.99 2.5,4.53 4.24,4.53 0.25,0 1.39,0 2.39,-0.74 z"
           inkscape:connector-curvature="0"
           style="fill:#000000;stroke-width:0" /><path
           id="path5127"
           d="m 567.4,418.45 -0.01,0.37 0,0.39 -0.01,0.39 -0.01,0.41 -0.04,0.84 -0.06,0.88 -0.09,0.92 -0.1,0.94 -0.14,0.98 -0.16,1 -0.2,1.02 -0.23,1.04 -0.27,1.05 -0.3,1.06 -0.35,1.06 -0.39,1.07 -0.22,0.53 -0.22,0.54 -0.24,0.53 -0.25,0.53 c -2.99,6.12 -7.27,9.36 -7.77,9.36 -0.3,0 -0.5,-0.2 -0.5,-0.5 0,-0.15 0,-0.25 0.94,-1.15 4.89,-4.92 7.73,-12.85 7.73,-23.26 0,-8.52 -1.85,-17.28 -8.02,-23.56 -0.65,-0.6 -0.65,-0.69 -0.65,-0.85 0,-0.29 0.2,-0.49 0.5,-0.49 0.5,0 4.98,3.38 7.92,9.71 2.54,5.48 3.14,11.01 3.14,15.19 z"
           inkscape:connector-curvature="0"
           style="fill:#000000;stroke-width:0" /></g>    </g>
    <g
       transform="matrix(0.79840428,0,0,0.79840428,-574.81389,620.68158)"
       id="g5510">
      <g
         style="font-style:normal;font-variant:normal;font-weight:normal;font-stretch:normal;letter-spacing:normal;word-spacing:normal;text-anchor:start;fill:none;fill-opacity:1;fill-rule:evenodd;stroke:#000000;stroke-linecap:butt;stroke-linejoin:miter;stroke-miterlimit:10.43299961;stroke-dasharray:none;stroke-dashoffset:0;stroke-opacity:1"
         id="g5512"
         transform="matrix(1.0629921,0,0,-1.0629921,-186.02362,789.27165)"
         xml:space="preserve"
         stroke-miterlimit="10.433"
         font-style="normal"
         font-variant="normal"
         font-weight="normal"
         font-stretch="normal"
         font-size-adjust="none"
         letter-spacing="normal"
         word-spacing="normal"><path
           style="fill:#000000;stroke-width:0"
           inkscape:connector-curvature="0"
           d="m 479.91,422.14 0.06,0.05 0.05,0.04 0.06,0.05 0.05,0.05 0.05,0.05 0.05,0.05 0.03,0.03 0.02,0.02 0.02,0.03 0.02,0.03 0.02,0.03 0.02,0.02 0.02,0.03 0.02,0.03 0.01,0.04 0.02,0.03 0.01,0.03 0.02,0.03 0.01,0.04 0.01,0.03 0.01,0.04 0,0.04 0.01,0.03 0,0.04 0.01,0.04 0,0.05 c 0,0.29 -0.2,0.54 -0.35,0.74 l -11.36,14 10.16,0 c 7.38,0 11.76,-1.35 12.86,-9.66 l 2.34,0 -1.55,12 -31.83,0 c -0.99,0 -1.59,0 -1.59,-1.19 0,-0.5 0,-0.6 0.5,-1.15 l 14.19,-17.48 -14.09,-12.51 c -0.3,-0.25 -0.6,-0.5 -0.6,-0.94 0,-0.9 0.85,-0.9 1.59,-0.9 l 31.83,0 1.55,12.95 -2.34,0 c -1.05,-8.62 -6.03,-9.66 -13.01,-9.66 l -13.4,0 z"
           id="path5514" /></g>    </g>
    <g
       id="g5642">
      <g
         word-spacing="normal"
         letter-spacing="normal"
         font-size-adjust="none"
         font-stretch="normal"
         font-weight="normal"
         font-variant="normal"
         font-style="normal"
         stroke-miterlimit="10.433"
         xml:space="preserve"
         transform="matrix(0.84761363,0,0,-0.84761363,-591.95958,1247.938)"
         id="g5644"
         style="font-style:normal;font-variant:normal;font-weight:normal;font-stretch:normal;letter-spacing:normal;word-spacing:normal;text-anchor:start;fill:none;fill-opacity:1;fill-rule:evenodd;stroke:#000000;stroke-linecap:butt;stroke-linejoin:miter;stroke-miterlimit:10.43299961;stroke-dasharray:none;stroke-dashoffset:0;stroke-opacity:1"><path
           id="path5646"
           d="m 493.81,435.84 0.14,0.2 0.14,0.2 0.14,0.19 0.08,0.09 0.08,0.09 0.08,0.08 0.09,0.09 0.09,0.08 0.09,0.08 0.1,0.07 0.11,0.08 0.12,0.07 0.12,0.07 0.13,0.06 0.14,0.06 0.15,0.06 0.15,0.06 0.17,0.05 0.18,0.05 0.19,0.04 0.2,0.04 0.21,0.04 0.23,0.03 0.24,0.03 0.25,0.03 0.13,0.01 0.14,0.01 0.13,0.01 0.15,0 0.14,0.01 0.16,0 0.15,0.01 0.16,0 c 0.6,0 1.5,0 1.5,1.44 0,0.3 -0.25,0.9 -0.9,0.9 l -10.01,0 c -0.4,0 -1.35,0 -1.35,-1.44 0,-0.9 0.85,-0.9 1.29,-0.9 0.26,0 1.7,0 2.79,-0.5 l -16.43,-23.91 -4.39,23.31 c -0.05,0.15 -0.1,0.55 -0.1,0.7 0,0.4 2.69,0.4 3.04,0.4 1.1,0 1.9,0 1.9,1.44 0,0.65 -0.5,0.9 -1.1,0.9 -1.24,0 -2.54,-0.1 -3.79,-0.1 l -7.07,0 c -1.09,0 -2.24,0.1 -3.29,0.1 -0.45,0 -1.39,0 -1.39,-1.44 0,-0.9 0.8,-0.9 1.84,-0.9 0.65,0 1.25,0 1.94,-0.05 0.55,-0.05 0.6,-0.1 0.75,-0.94 l 5.68,-30.29 c 0.25,-1.4 0.8,-1.4 1.74,-1.4 1.4,0 1.65,0.35 2.3,1.3 z"
           inkscape:connector-curvature="0"
           style="fill:#000000;stroke-width:0" /><path
           id="path5648"
           d="m 531.32,444.99 0.03,0.12 0.03,0.11 0.03,0.11 0.03,0.1 0.02,0.09 0.03,0.1 0.03,0.08 0.04,0.08 0.03,0.08 0.04,0.07 0.04,0.06 0.05,0.06 0.05,0.06 0.06,0.05 0.06,0.05 0.07,0.05 0.07,0.04 0.08,0.04 0.09,0.03 0.1,0.03 0.11,0.03 0.05,0.01 0.06,0.02 0.06,0.01 0.07,0.01 0.06,0.01 0.07,0.01 0.07,0 0.08,0.01 0.07,0.01 0.08,0 0.09,0.01 0.08,0.01 0.09,0 0.09,0 0.1,0.01 0.1,0 0.1,0 0.1,0.01 0.11,0 0.11,0 0.12,0 0.12,0 c 0.76,0 1.18,0 1.18,0.77 0,0.14 -0.1,0.49 -0.55,0.49 l -9.17,0 c -0.22,0 -0.74,0 -0.74,-0.77 0,-0.49 0.42,-0.49 1.12,-0.49 0.03,0 0.7,0 1.32,-0.07 0.74,-0.07 0.81,-0.14 0.81,-0.49 0,-0.03 0,-0.24 -0.14,-0.77 l -2.06,-8.22 -11.68,0 2.02,8.09 c 0.32,1.18 0.38,1.46 3.07,1.46 0.59,0 1.05,0 1.05,0.77 0,0.14 -0.11,0.49 -0.56,0.49 l -9.17,0 c -0.21,0 -0.74,0 -0.74,-0.77 0,-0.49 0.42,-0.49 1.12,-0.49 0.04,0 0.7,0 1.33,-0.07 0.73,-0.07 0.8,-0.14 0.8,-0.49 0,-0.07 0,-0.24 -0.14,-0.77 l -4.64,-18.51 c -0.28,-1.18 -0.35,-1.47 -3.07,-1.47 -0.59,0 -1.04,0 -1.04,-0.73 0,-0.34 0.24,-0.52 0.55,-0.52 l 9.17,0 c 0.18,0 0.74,0 0.74,0.73 0,0.52 -0.35,0.52 -1.15,0.52 -0.56,0 -0.7,0 -1.33,0.07 -0.77,0.11 -0.77,0.18 -0.77,0.53 0,0.03 0,0.24 0.14,0.76 l 2.31,9.14 11.68,0 -2.27,-9.03 c -0.28,-1.18 -0.35,-1.47 -3.07,-1.47 -0.59,0 -1.05,0 -1.05,-0.73 0,-0.34 0.25,-0.52 0.56,-0.52 l 9.17,0 c 0.18,0 0.73,0 0.73,0.73 0,0.52 -0.34,0.52 -1.14,0.52 -0.56,0 -0.7,0 -1.33,0.07 -0.77,0.11 -0.77,0.18 -0.77,0.53 0,0.21 0.11,0.56 0.14,0.76 z"
           inkscape:connector-curvature="0"
           style="fill:#000000;stroke-width:0" /><path
           id="path5650"
           d="m 556.49,394.04 0,0.03 0,0.03 -0.01,0.01 0,0.02 0,0.01 -0.01,0.02 0,0.02 -0.01,0.01 -0.01,0.02 -0.01,0.02 -0.01,0.03 -0.01,0.02 -0.02,0.02 -0.02,0.03 -0.02,0.03 -0.02,0.03 -0.03,0.03 -0.03,0.04 -0.01,0.02 -0.02,0.02 -0.02,0.02 -0.02,0.02 -0.02,0.02 -0.02,0.03 -0.02,0.02 -0.02,0.02 -0.02,0.03 -0.03,0.02 -0.02,0.03 -0.03,0.03 -0.02,0.03 -0.03,0.03 -0.03,0.03 -0.03,0.03 -0.03,0.03 -0.03,0.03 -0.04,0.04 -0.03,0.03 -0.04,0.04 -0.03,0.03 -0.04,0.04 -0.04,0.04 c -6.23,6.28 -7.82,15.69 -7.82,23.31 0,8.67 1.9,17.34 8.02,23.57 0.65,0.59 0.65,0.69 0.65,0.84 0,0.35 -0.2,0.5 -0.5,0.5 -0.5,0 -4.98,-3.39 -7.92,-9.72 -2.54,-5.47 -3.14,-11 -3.14,-15.19 0,-3.88 0.55,-9.91 3.29,-15.54 2.99,-6.12 7.27,-9.36 7.77,-9.36 0.3,0 0.5,0.15 0.5,0.49 z"
           inkscape:connector-curvature="0"
           style="fill:#000000;stroke-width:0" /><path
           id="path5652"
           d="m 569.26,425.93 4.69,0 c 0.99,0 1.49,0 1.49,0.99 0,0.55 -0.5,0.55 -1.4,0.55 l -4.38,0 c 1.79,7.07 2.04,8.07 2.04,8.37 0,0.84 -0.6,1.34 -1.44,1.34 -0.15,0 -1.54,-0.05 -1.99,-1.79 l -1.95,-7.92 -4.68,0 c -0.99,0 -1.49,0 -1.49,-0.95 0,-0.59 0.39,-0.59 1.39,-0.59 l 4.39,0 c -3.59,-14.15 -3.79,-15 -3.79,-15.89 0,-2.7 1.89,-4.59 4.58,-4.59 5.08,0 7.92,7.28 7.92,7.67 0,0.5 -0.4,0.5 -0.6,0.5 -0.45,0 -0.49,-0.15 -0.74,-0.69 -2.14,-5.19 -4.78,-6.38 -6.48,-6.38 -1.05,0 -1.54,0.65 -1.54,2.29 0,1.2 0.1,1.54 0.29,2.39 z"
           inkscape:connector-curvature="0"
           style="fill:#000000;stroke-width:0" /><path
           id="path5654"
           d="m 591.4,418.45 -0.01,0.37 0,0.39 -0.01,0.39 -0.01,0.41 -0.04,0.84 -0.06,0.88 -0.09,0.92 -0.1,0.94 -0.14,0.98 -0.16,1 -0.2,1.02 -0.23,1.04 -0.27,1.05 -0.3,1.06 -0.35,1.06 -0.39,1.07 -0.22,0.53 -0.22,0.54 -0.24,0.53 -0.25,0.53 c -2.99,6.12 -7.27,9.36 -7.77,9.36 -0.3,0 -0.5,-0.2 -0.5,-0.5 0,-0.15 0,-0.25 0.94,-1.15 4.89,-4.92 7.73,-12.85 7.73,-23.26 0,-8.52 -1.85,-17.28 -8.02,-23.56 -0.65,-0.6 -0.65,-0.69 -0.65,-0.85 0,-0.29 0.2,-0.49 0.5,-0.49 0.5,0 4.98,3.38 7.92,9.71 2.54,5.48 3.14,11.01 3.14,15.19 z"
           inkscape:connector-curvature="0"
           style="fill:#000000;stroke-width:0" /></g>    </g>
  </g>
</svg>
